<svg xmlns="http://www.w3.org/2000/svg" viewBox="0 0 494.62 494.62"><defs><style>.cls-1{fill:#733999;}.cls-2{fill:#fff;}</style></defs><g id="Capa_2" data-name="Capa 2"><g id="Layer_1" data-name="Layer 1"><circle class="cls-1" cx="247.31" cy="247.31" r="247.31"/><path class="cls-2" d="M378.86,240.82a19.31,19.31,0,0,1-5,2.29c-2,.54-2.46,3.66-.85,5.16a16.45,16.45,0,0,1,4.88,9.31c1.21,6.55-1.31,11.78-6.12,16.06a24.66,24.66,0,0,1-6.64,4.18,3.75,3.75,0,0,0-1,6.28c4.79,4.1,6.17,9.86,3.67,16a22.38,22.38,0,0,1-10.1,11.61,11.84,11.84,0,0,1-2,.84,3.06,3.06,0,0,0-2.52,3.1,3.71,3.71,0,0,0,1.34,3.31,12.9,12.9,0,0,1,3.59,16.18,27.82,27.82,0,0,1-7.42,9.26c-1.42,1.22-5.18,3.1-8.06,4.36a63.55,63.55,0,0,1-7.9,2c-70.85,14.4-120.61-4.25-126.94-6.54-1.33-.49-5.74-3.34-6.94-3.35-.21,0-1.69-.37-1.69-.56V234.22l7.93-5.58a4.09,4.09,0,0,0,.7-.61,3.11,3.11,0,0,0,.23-.28c14.07-17.69,23.11-36.49,33.6-56.5,7-13.38,8.77-41.93,8.71-52.69A11.36,11.36,0,0,1,262,107.21c2.13,0,6.57.16,9.25,1.14,3.18,1.17,5.89,5.32,8.6,10.64,3.7,7.25,6,15.11,8.24,23a70.81,70.81,0,0,1,2,9,31.17,31.17,0,0,1,.18,6.69c-.18,2.56-.32,5.11-.57,7.66-.5,5-1.21,10-2.06,15-.91,5.38-1.94,10.74-3,16.08l0,.19a5.73,5.73,0,0,1-.2,1.32c-1.74,6.87,5.25,10.9,9.39,12.64a33.79,33.79,0,0,0,6.87,1c22.65,0,60.64-.13,65.22-.12,3.06,0,6.14-.06,9.19.09a13.09,13.09,0,0,1,12.19,10.22C388.93,228.88,385.52,236.68,378.86,240.82Z"/><rect class="cls-2" x="126.87" y="218.53" width="72.31" height="142.74" rx="10.82" transform="translate(326.05 579.8) rotate(180)"/><path class="cls-2" d="M134.57,289h56.91a7.7,7.7,0,0,1,7.7,7.7v64.61a0,0,0,0,1,0,0H126.87a0,0,0,0,1,0,0V296.66A7.7,7.7,0,0,1,134.57,289Z" transform="translate(326.05 650.23) rotate(180)"/></g></g></svg>