<svg xmlns="http://www.w3.org/2000/svg" viewBox="0 0 494.62 494.62"><defs><style>.cls-1{fill:#22b573;}.cls-2{fill:#fff;}</style></defs><g id="Capa_2" data-name="Capa 2"><g id="Layer_1" data-name="Layer 1"><circle class="cls-1" cx="247.31" cy="247.31" r="247.31"/><path class="cls-2" d="M334.53,311.22c4.3,5,44.58,45.42,51.17,53.64,5.69,7.09,7.07,15.41,2.86,23.54a22.77,22.77,0,0,1-21.42,12.75,24.44,24.44,0,0,1-17.37-8.86c-9.77-11.56-36.41-38.76-46.22-50.3-.65-.75-1.35-1.46-2.3-2.48-1,1.78-1.88,3.24-2.62,4.78q-10.72,22.05-21.41,44.12c-2.72,5.61-7.42,7.42-13.2,5.07-5-2-7.93-5.9-9.37-11q-9-32-18-64Q222.83,269.22,208.92,220c-1.28-4.51-1.95-9-.46-13.56,2.45-7.48,9.54-10.84,18.2-7.83,6.44,2.24,12.56,5.41,18.75,8.31q69.24,32.43,138.47,64.92c5,2.34,8.71,5.62,10,11.17,1.48,6.22-1.05,10.68-7.14,12.48q-23.2,6.86-46.42,13.7C338.53,309.73,336.75,310.44,334.53,311.22Z"/><path class="cls-2" d="M283.7,194.61a11.73,11.73,0,0,1,8.52-11.51c12.28-3.77,24.63-7.38,37.08-10.54,7.28-1.86,12.82,1.77,14.67,8.51,1.75,6.41-1.3,12.4-8.3,14.59-12,3.76-24,7.3-36.19,10.36C290.73,208.22,283.73,202.79,283.7,194.61Z"/><path class="cls-2" d="M147.16,224.49c7.67,0,12.24,3.37,13.59,8.76,1.41,5.67-.72,11.14-6.22,13.6-4.71,2.12-9.82,3.4-14.81,4.84-8.14,2.35-16.25,4.84-24.51,6.68-7.33,1.64-12.79-2-14.51-8.78-1.62-6.41,1.61-12.21,8.64-14.43,9.35-2.94,18.82-5.5,28.25-8.17C141.31,225.94,145.07,225,147.16,224.49Z"/><path class="cls-2" d="M259.92,161.05c-9.69-.13-15.45-9.68-10.81-18.17,6.12-11.19,12.38-22.31,18.68-33.4,2.81-5,6.93-6.79,12.31-5.83,5.15.92,9.37,4.78,9.94,9.87a12.79,12.79,0,0,1-1.27,7q-9.33,17.38-19.2,34.5C267.54,158.56,264.4,161.09,259.92,161.05Z"/><path class="cls-2" d="M167.74,177.92c-.07,5.77-3.1,11-8.35,12.23A14.63,14.63,0,0,1,150,188.7q-17.13-8.89-33.8-18.68a11.76,11.76,0,0,1-4.29-16.09,11.59,11.59,0,0,1,15.93-4.67c11.66,6.15,23.14,12.64,34.59,19.19A10,10,0,0,1,167.74,177.92Z"/><path class="cls-2" d="M154.4,315.25a33.44,33.44,0,0,1,1.88-5.4q9.28-16.94,18.79-33.73a12,12,0,0,1,16-4.58c6,3.27,8.19,9.91,4.9,15.95q-9.32,17.1-18.89,34c-2.84,5-8.08,7-13.66,5.54C158.37,325.72,154.72,320.8,154.4,315.25Z"/><path class="cls-2" d="M201,154a10.75,10.75,0,0,1-10.64-7.75c-3.87-12.67-7.61-25.4-10.9-38.22-1.76-6.9,2.13-12.69,8.6-14.37,6.14-1.6,12.34,1.75,14.35,8.36,3.7,12.19,7.24,24.44,10.47,36.77C215.15,147.34,209.63,154.09,201,154Z"/></g></g></svg>