<svg width="640" height="512" viewBox="0 0 640 512" fill="none" xmlns="http://www.w3.org/2000/svg">
<path d="M624 352H608V243.9C608 231.2 602.9 219 593.9 210L494 110.1C485 101.1 472.8 96 460.1 96H416V48C416 21.5 394.5 0 368 0H48C21.5 0 0 21.5 0 48V368C0 394.5 21.5 416 48 416H64C64 469 107 512 160 512C213 512 256 469 256 416H384C384 469 427 512 480 512C533 512 576 469 576 416H624C632.8 416 640 408.8 640 400V368C640 359.2 632.8 352 624 352ZM160 464C133.5 464 112 442.5 112 416C112 389.5 133.5 368 160 368C186.5 368 208 389.5 208 416C208 442.5 186.5 464 160 464ZM480 464C453.5 464 432 442.5 432 416C432 389.5 453.5 368 480 368C506.5 368 528 389.5 528 416C528 442.5 506.5 464 480 464ZM560 256H416V144H460.1L560 243.9V256Z" fill="#00AD26"/>
</svg>
