<svg width="384" height="512" viewBox="0 0 384 512" fill="none" xmlns="http://www.w3.org/2000/svg">
<g clip-path="url(#clip0)">
<path d="M97.12 362.63C88.43 353.94 92.96 356.39 72 350.78C62.49 348.23 54.13 343.33 46.57 337.46L1.20002 448.7C-3.18998 459.47 5.01002 471.17 16.63 470.73L69.32 468.72L105.56 507C113.56 515.44 127.6 512.81 131.99 502.04L184.04 374.42C173.2 380.46 161.17 384 148.73 384C129.23 384 110.91 376.41 97.12 362.63V362.63ZM382.8 448.7L337.43 337.46C329.87 343.34 321.51 348.23 312 350.78C290.93 356.42 295.55 353.96 286.88 362.63C273.09 376.41 254.76 384 235.26 384C222.82 384 210.79 380.45 199.95 374.42L252 502.04C256.39 512.81 270.44 515.44 278.43 507L314.68 468.72L367.37 470.73C378.99 471.17 387.19 459.46 382.8 448.7V448.7ZM263 340C278.28 324.45 280.03 325.79 301.79 319.86C315.68 316.07 326.54 305.02 330.26 290.88C337.74 262.48 335.8 265.91 356.21 245.13C366.38 234.78 370.35 219.69 366.63 205.55C359.16 177.17 359.15 181.13 366.63 152.72C370.35 138.58 366.38 123.49 356.21 113.14C335.8 92.36 337.74 95.78 330.26 67.39C326.54 53.25 315.68 42.2 301.79 38.41C273.91 30.8 277.27 32.79 256.84 12C246.67 1.65 231.84 -2.4 217.95 1.39C190.08 8.99 193.97 9 166.05 1.39C152.16 -2.4 137.33 1.64 127.16 12C106.75 32.78 110.11 30.8 82.22 38.41C68.33 42.2 57.47 53.25 53.75 67.39C46.28 95.78 48.21 92.36 27.8 113.14C17.63 123.49 13.65 138.58 17.38 152.72C24.85 181.08 24.86 177.12 17.38 205.54C13.66 219.68 17.63 234.77 27.8 245.13C48.21 265.91 46.27 262.48 53.75 290.88C57.47 305.02 68.33 316.07 82.22 319.86C104.6 325.96 106.27 325 121 340C134.23 353.47 154.84 355.88 170.74 345.82C177.098 341.784 184.474 339.64 192.005 339.64C199.536 339.64 206.912 341.784 213.27 345.82C229.16 355.88 249.77 353.47 263 340ZM97.66 175.96C97.66 122.93 139.9 79.94 192 79.94C244.1 79.94 286.34 122.93 286.34 175.96C286.34 228.99 244.1 271.98 192 271.98C139.9 271.98 97.66 228.99 97.66 175.96V175.96Z" fill="#00AD26"/>
</g>
<defs>
<clipPath id="clip0">
<rect width="384" height="512" fill="white"/>
</clipPath>
</defs>
</svg>
